<?xml version="1.0" encoding="iso-8859-1"?>
<!-- Uploaded to: SVG Repo, www.svgrepo.com, Generator: SVG Repo Mixer Tools -->
<!DOCTYPE svg PUBLIC "-//W3C//DTD SVG 1.1//EN" "http://www.w3.org/Graphics/SVG/1.1/DTD/svg11.dtd">
<svg fill="#FFFFFF" height="800px" width="800px" version="1.1" id="Capa_1" xmlns="http://www.w3.org/2000/svg" xmlns:xlink="http://www.w3.org/1999/xlink" 
	 viewBox="0 0 438.241 438.241" xml:space="preserve">
<g>
	<path d="M366.526,294.454c-3.906-3.905-10.238-3.905-14.143,0c-3.905,3.905-3.905,10.237,0,14.142l1.716,1.715L250.312,414.099
		l-166.17-166.17l1.716-1.716c3.905-3.905,3.905-10.237,0-14.143c-3.905-3.905-10.237-3.905-14.143,0l-8.787,8.787
		c-1.875,1.875-2.929,4.419-2.929,7.071s1.054,5.196,2.929,7.071l180.312,180.312c1.953,1.953,4.512,2.929,7.071,2.929
		s5.118-0.976,7.071-2.929l117.93-117.929c1.875,1.875,2.929-4.419,2.929-7.071c0-2.652-1.054-5.196-2.929-7.071L366.526,294.454z"
		/>
	<path d="M366.526,234.454c-3.906-3.905-10.238-3.905-14.143,0c-3.905,3.905-3.905,10.237,0,14.142l1.716,1.715L250.312,354.099
		l-166.17-166.17l1.716-1.716c3.905-3.905,3.905-10.237,0-14.142s-10.237-3.905-14.142,0l-8.787,8.787
		c-3.905,3.905-3.905,10.237,0,14.142l180.312,180.312c1.953,1.953,4.512,2.929,7.071,2.929s5.118-0.976,7.071-2.929l117.93-117.929
		c1.875,1.875,2.929-4.419,2.929-7.071c0-2.652-1.054-5.196-2.929-7.071L366.526,234.454z"/>
	<path d="M243.241,315.313c1.953,1.953,4.512,2.929,7.071,2.929s5.118-0.976,7.071-2.929l117.93-117.929
		c1.875,1.875,2.929-4.419,2.929-7.071s-1.054-5.196-2.929-7.071L195.001,2.929c-3.905-3.905-10.237-3.905-14.142,0l-117.93,117.93
		c-1.875,1.875-2.929,4.418-2.929,7.071s1.054,5.196,2.929,7.071L243.241,315.313z M187.929,24.142l166.17,166.17L250.312,294.099
		l-166.17-166.17L187.929,24.142z"/>

</g>
</svg>